# xmcd
#
# Track frame offsets:
#	150
#	15377
#	30017
#	46668
#	67665
#	83027
#	94979
#	110090
#	128425
#	142990
#
# Disc length: 2136 seconds
# Revision: 0
# Processed by: cddbd v1.5.2PL0 Copyright (c) Steve Scherf et al.
# Submitted via: dBpowerAMP V12.0
#
DISCID=6708560a
DTITLE=Johnny St. Clair - Who I Aam
DYEAR=2005
DGENRE=Country
TTITLE0=Who I Am
TTITLE1=Don't Tell Mama
TTITLE2=For Every New Love Found
TTITLE3=Steel Stampede
TTITLE4=Magnolia
TTITLE5=Slide Off Your Satin Sheets
TTITLE6=If I Learned Anything At All
TTITLE7=All I Need Is A Bridge
TTITLE8=Heart Over Mind
TTITLE9=My Baby Girl
EXTD=
EXTT0=
EXTT1=
EXTT2=
EXTT3=
EXTT4=
EXTT5=
EXTT6=
EXTT7=
EXTT8=
EXTT9=
PLAYORDER=
